<svg xmlns="http://www.w3.org/2000/svg" xmlns:svg="http://www.w3.org/2000/svg" id="svg45" width="100%" height="100%" version="1.1" viewBox="0 0 32 32" xml:space="preserve" style="fill-rule:evenodd;clip-rule:evenodd;stroke-linecap:round;stroke-linejoin:round;stroke-miterlimit:1.5"><metadata id="metadata51"/><defs id="defs49"><clipPath id="_clip2"><path id="path13" d="M 1.5,19 V 10.281 H 30.5 V 20 l -1.514,4.541 -2.359,0.842 c -6.549,2.339 -13.705,2.339 -20.254,0 L 3.514,23.541 Z"/></clipPath></defs><rect style="fill:none" id="ferris" width="32" height="32" x="0" y="0"/><clipPath id="_clip1"><rect id="rect3" width="32" height="32" x="0" y="0"/></clipPath><path id="path6" d="M 2,7.281 C 2,6.973 2.142,6.682 2.385,6.493 2.627,6.303 2.944,6.236 3.243,6.311 3.787,6.447 4.42,6.605 4.942,6.736 5.573,6.893 6.233,6.627 6.578,6.075 6.998,5.404 7.562,4.501 7.97,3.848 8.111,3.623 8.335,3.463 8.593,3.404 8.852,3.344 9.123,3.389 9.348,3.53 9.973,3.921 10.827,4.454 11.488,4.868 12.08,5.238 12.85,5.15 13.344,4.656 13.94,4.06 14.73,3.27 15.293,2.707 c 0.39,-0.39 1.024,-0.39 1.414,0 0.563,0.563 1.353,1.353 1.949,1.949 0.494,0.494 1.264,0.582 1.856,0.212 0.661,-0.414 1.515,-0.947 2.14,-1.338 0.225,-0.141 0.496,-0.186 0.755,-0.126 0.258,0.059 0.482,0.219 0.623,0.444 0.408,0.653 0.972,1.556 1.392,2.227 0.345,0.552 1.005,0.818 1.636,0.661 C 27.58,6.605 28.213,6.447 28.757,6.311 29.056,6.236 29.373,6.303 29.615,6.493 29.858,6.682 30,6.973 30,7.281 V 23 c 0,3.866 -3.134,7 -7,7 -1.68,0 -3,0 -3,0 v -1.158 c 0,-1.152 0.357,-2.229 0.972,-3.118 -3.291,0.551 -6.653,0.551 -9.944,0 C 11.643,26.613 12,27.69 12,28.842 V 30 c 0,0 -1.32,0 -3,0 -3.866,0 -7,-3.134 -7,-7 z" style="fill:none;stroke:#a53a0c;stroke-width:4px;stroke-opacity:1"/><path id="path9" d="M 2,19 V 7.281 C 2,6.973 2.142,6.682 2.385,6.493 2.627,6.303 2.944,6.236 3.243,6.311 3.787,6.447 4.42,6.605 4.942,6.736 5.573,6.893 6.233,6.627 6.578,6.075 6.998,5.404 7.562,4.501 7.97,3.848 8.111,3.623 8.335,3.463 8.593,3.404 8.852,3.344 9.123,3.389 9.348,3.53 9.973,3.921 10.827,4.454 11.488,4.868 12.08,5.238 12.85,5.15 13.344,4.656 13.94,4.06 14.73,3.27 15.293,2.707 c 0.39,-0.39 1.024,-0.39 1.414,0 0.563,0.563 1.353,1.353 1.949,1.949 0.494,0.494 1.264,0.582 1.856,0.212 0.661,-0.414 1.515,-0.947 2.14,-1.338 0.225,-0.141 0.496,-0.186 0.755,-0.126 0.258,0.059 0.482,0.219 0.623,0.444 0.408,0.653 0.972,1.556 1.392,2.227 0.345,0.552 1.005,0.818 1.636,0.661 C 27.58,6.605 28.213,6.447 28.757,6.311 29.056,6.236 29.373,6.303 29.615,6.493 29.858,6.682 30,6.973 30,7.281 V 19 l -1.514,4.541 -2.359,-0.158 c -1.68,0.6 -7.577,2.646 -7.579,2.646 -1.696,0.144 -3.401,0.144 -5.096,0 -0.004,0 -5.896,-2.045 -7.579,-2.646 l -2.359,0.158 z" style="fill:#ec7235"/><g id="g20" clip-path="url(#_clip2)"><path id="path16" d="m 20,30 v -1.158 c 0,-2.766 2.06,-5.099 4.804,-5.443 C 26.503,23.187 28,23 28,23 l 4,-8 v 8 c 0,1.857 -0.738,3.637 -2.05,4.95 C 28.637,29.263 26.857,30 25,30 Z" style="fill:none;stroke:#a53a0c;stroke-width:4px;stroke-linecap:square"/><path id="path18" d="M 12,30 V 28.842 C 12,26.076 9.94,23.743 7.196,23.399 5.497,23.187 4,23 4,23 L 0,15 v 8 c 0,1.857 0.738,3.637 2.05,4.95 C 3.363,29.263 5.143,30 7,30 Z" style="fill:none;stroke:#a53a0c;stroke-width:4px;stroke-linecap:square"/></g><path id="path11" d="M 2,19 V 10.281 H 30 V 19 l -1.514,4.541 -2.359,0.842 c -6.549,2.339 -13.705,2.339 -20.254,0 L 3.514,23.541 Z" style="fill:none"/><g id="g26"><path id="path22" d="m 20.064,28 c 0.369,-2.385 2.279,-4.293 4.74,-4.601 C 26.503,23.187 28,23 28,23 l 2,-4 v 4 c 0,3.866 -3.134,7 -7,7 -1.68,0 -3,0 -3,0 v -1 l 0.481,-0.585 z" style="fill:#ec7235"/><path id="path24" d="m 20.064,28 h 0.208 c 0.466,0 0.913,-0.185 1.243,-0.515 0.387,-0.387 0.931,-0.931 1.411,-1.411 C 23.614,25.386 24.546,25 25.518,25 H 26 c 0,0 -0.233,0.467 -0.541,1.081 C 24.565,27.87 22.737,29 20.737,29 H 20 V 28.842 C 20,28.556 20.022,28.275 20.064,28 Z" style="fill:#b54b12"/></g><g id="g32"><path id="path28" d="M 11.936,28 C 11.567,25.615 9.657,23.707 7.196,23.399 5.497,23.187 4,23 4,23 L 2,19 v 4 c 0,3.866 3.134,7 7,7 1.68,0 3,0 3,0 v -1 l -0.481,-0.585 z" style="fill:#ec7235"/><path id="path30" d="M 11.936,28 H 11.728 C 11.262,28 10.815,27.815 10.485,27.485 10.098,27.098 9.554,26.554 9.074,26.074 8.386,25.386 7.454,25 6.482,25 H 6 c 0,0 0.233,0.467 0.541,1.081 C 7.435,27.87 9.263,29 11.263,29 H 12 V 28.842 C 12,28.556 11.978,28.275 11.936,28 Z" style="fill:#b54b12"/></g><path id="path100-1" d="m 15.999698,19.092472 c -0.642392,0 -1.163031,-0.473429 -1.163031,-1.057015 v -3.326426 c 0,-0.583089 0.520639,-1.057015 1.163031,-1.057015 0.642392,0 1.164191,0.473926 1.164191,1.057015 v 3.326426 c 0,0.583586 -0.521799,1.057015 -1.164191,1.057015" style="clip-rule:evenodd;fill:#fff;fill-opacity:1;fill-rule:nonzero;stroke:none;stroke-width:.0530598;stroke-linecap:round;stroke-linejoin:round;stroke-miterlimit:1.5"/><path style="clip-rule:evenodd;fill:#fff;fill-opacity:1;fill-rule:nonzero;stroke:none;stroke-width:.0530598;stroke-linecap:round;stroke-linejoin:round;stroke-miterlimit:1.5" id="path1043" d="m 15.99942,19.092472 c -0.642392,0 -1.163031,-0.473429 -1.163031,-1.057015 v -3.326426 c 0,-0.583089 0.520639,-1.057015 1.163031,-1.057015 0.642392,0 1.164191,0.473926 1.164191,1.057015 v 3.326426 c 0,0.583586 -0.521799,1.057015 -1.164191,1.057015"/><g id="g1092" transform="matrix(0.1656504,0,0,-0.1656504,-10.878421,15.425356)" style="stroke-width:.320312"><path id="path1037" d="m 142.11264,-2.7527764 c 0,-14.1870486 -11.4949,-25.6795936 -25.67725,-25.6795936 -14.17527,0 -25.673698,11.492545 -25.673698,25.6795936 0,14.1776304 11.498428,25.6642904 25.673698,25.6642904 14.18235,0 25.67725,-11.48666 25.67725,-25.6642904" style="clip-rule:evenodd;fill:#fff;fill-opacity:1;fill-rule:nonzero;stroke:none;stroke-width:.377057;stroke-linecap:round;stroke-linejoin:round;stroke-miterlimit:1.5"/><g style="clip-rule:evenodd;fill-rule:evenodd;stroke-width:.320312;stroke-linecap:round;stroke-linejoin:round;stroke-miterlimit:1.5" id="g1041" transform="matrix(1.177153,0,0,1.177153,-95.459435,13.637214)"><path id="path1039" d="m 196.57057,-15.217257 c 0,-7.994 -6.479,-14.473 -14.479,-14.473 -7.996,0 -14.479,6.479 -14.479,14.473 0,7.9940004 6.483,14.47900041 14.479,14.47900041 8,0 14.479,-6.48500001 14.479,-14.47900041" style="fill:#414042;fill-opacity:1;fill-rule:nonzero;stroke:none;stroke-width:.320312"/></g><path id="path1045" d="m 182.4072,-2.7527764 c 0,-14.1870486 11.4949,-25.6795936 25.67959,-25.6795936 14.1741,0 25.67136,11.492545 25.67136,25.6795936 0,14.1776304 -11.49726,25.6642904 -25.67136,25.6642904 -14.18469,0 -25.67959,-11.48666 -25.67959,-25.6642904" style="clip-rule:evenodd;fill:#fff;fill-opacity:1;fill-rule:nonzero;stroke:none;stroke-width:.377057;stroke-linecap:round;stroke-linejoin:round;stroke-miterlimit:1.5"/><path id="path1047" d="m 188.5872,-4.2758262 c 0,-9.4101618 7.62442,-17.0369358 17.03458,-17.0369358 9.41957,0 17.044,7.626774 17.044,17.0369358 0,9.4101617 -7.62443,17.0440002 -17.044,17.0440002 -9.41016,0 -17.03458,-7.6338385 -17.03458,-17.0440002" style="fill:#414042;fill-opacity:1;fill-rule:nonzero;stroke:none;stroke-width:.377057"/></g></svg>